<svg xmlns="http://www.w3.org/2000/svg"  viewBox="0 0 48 48" width="48px" height="48px" baseProfile="basic"><linearGradient id="gem49K_SnFEYzabzy9W8Xa" x1="8.476" x2="57.312" y1="25.945" y2="4.644" gradientUnits="userSpaceOnUse"><stop offset="0" stop-color="#e3f9ff"/><stop offset=".235" stop-color="#c3f1ff"/><stop offset=".57" stop-color="#9be8ff"/><stop offset=".837" stop-color="#83e2ff"/><stop offset="1" stop-color="#7ae0ff"/></linearGradient><path fill="url(#gem49K_SnFEYzabzy9W8Xa)" d="M37.438,11.739L30.008,24h-6.007l-9.527,16.5c-0.385,0.667-1.347,0.667-1.732,0L3.793,25	c-0.357-0.619-0.357-1.381,0-2L13.03,7c0.357-0.619,1.018-1,1.732-1h18.475c0.714,0,1.375,0.381,1.732,1l2.459,4.258	C37.514,11.406,37.518,11.588,37.438,11.739z"/><linearGradient id="gem49K_SnFEYzabzy9W8Xb" x1="35.726" x2="22.095" y1="22.281" y2="34.734" gradientUnits="userSpaceOnUse"><stop offset="0" stop-color="#e3f9ff"/><stop offset=".235" stop-color="#c3f1ff"/><stop offset=".57" stop-color="#9be8ff"/><stop offset=".837" stop-color="#83e2ff"/><stop offset="1" stop-color="#7ae0ff"/></linearGradient><path fill="url(#gem49K_SnFEYzabzy9W8Xb)" d="M44.78,24l-0.54,0.94c-0.01,0.02-0.02,0.04-0.03,0.06l-9.24,16c-0.36,0.62-1.02,1-1.73,1	H21.69c-0.35,0-0.7-0.1-1-0.27c-0.29-0.17-0.54-0.41-0.71-0.71L13.61,30l3.46-6l3.47-6h19.63c0.35,0,0.69,0.09,0.99,0.27	c0.08,0.04,0.15,0.09,0.22,0.14c0.2,0.15,0.37,0.35,0.5,0.57c0.01,0.01,0.02,0.01,0.02,0.02l1.34,2.33L44.21,23	c0.01,0.02,0.02,0.03,0.02,0.05L44.78,24z"/><linearGradient id="gem49K_SnFEYzabzy9W8Xc" x1="18.695" x2="19.799" y1="32.054" y2="41.552" gradientUnits="userSpaceOnUse"><stop offset="0" stop-color="#e3f9ff"/><stop offset=".235" stop-color="#c3f1ff"/><stop offset=".57" stop-color="#9be8ff"/><stop offset=".837" stop-color="#83e2ff"/><stop offset="1" stop-color="#7ae0ff"/></linearGradient><path fill="url(#gem49K_SnFEYzabzy9W8Xc)" d="M24,36l-3.31,5.73c-0.29-0.17-0.54-0.41-0.71-0.71L13.61,30l3.46-6L24,36z"/><linearGradient id="gem49K_SnFEYzabzy9W8Xd" x1="36.72" x2="10.859" y1="24.519" y2="23.463" gradientUnits="userSpaceOnUse"><stop offset="0" stop-color="#f5f9fa"/><stop offset="1" stop-color="#a4c9e2"/></linearGradient><path fill="url(#gem49K_SnFEYzabzy9W8Xd)" d="M17.649,33l-4.619-8c-0.357-0.619-0.357-1.381,0-2l4.619-8c0.357-0.619,1.018-1,1.732-1h9.237	c0.715,0,1.375,0.381,1.732,1l4.619,8c0.357,0.619,0.357,1.381,0,2l-4.619,8c-0.357,0.619-1.018,1-1.732,1h-9.237	C18.667,34,18.006,33.619,17.649,33z"/><linearGradient id="gem49K_SnFEYzabzy9W8Xe" x1="18.381" x2="32.083" y1="16" y2="16" gradientUnits="userSpaceOnUse"><stop offset="0" stop-color="#afcadb"/><stop offset="1" stop-color="#ecf8ff"/></linearGradient><path fill="url(#gem49K_SnFEYzabzy9W8Xe)" d="M20.535,18h11.547l-1.732-3c-0.357-0.619-1.018-1-1.732-1h-9.237	c-0.357,0-0.701,0.095-1,0.268L20.535,18z"/><linearGradient id="gem49K_SnFEYzabzy9W8Xf" x1="10.14" x2="37.506" y1="11.86" y2="11.86" gradientUnits="userSpaceOnUse"><stop offset="0" stop-color="#52abc9"/><stop offset="1" stop-color="#1c506a"/></linearGradient><path fill="url(#gem49K_SnFEYzabzy9W8Xf)" d="M37,12H17.65c-0.18,0-0.35,0.05-0.5,0.13c-0.15,0.09-0.28,0.21-0.37,0.37l-2.45,4.24	l-0.57,0.98L10.14,12l2.9-5.02c0.18-0.3,0.43-0.54,0.72-0.71C14.06,6.1,14.4,6,14.76,6h18.47c0.72,0,1.38,0.38,1.74,1l2.47,4.24	C37.63,11.58,37.39,12,37,12z"/><linearGradient id="gem49K_SnFEYzabzy9W8Xg" x1="21.116" x2="8.188" y1="11.654" y2="32.882" gradientUnits="userSpaceOnUse"><stop offset="0" stop-color="#197396"/><stop offset=".114" stop-color="#1a6b8c"/><stop offset=".392" stop-color="#1b5c7a"/><stop offset=".681" stop-color="#1c536f"/><stop offset="1" stop-color="#1c506b"/></linearGradient><path fill="url(#gem49K_SnFEYzabzy9W8Xg)" d="M24,24l-9.53,16.5c-0.38,0.67-1.34,0.67-1.73,0L3.79,25c-0.35-0.62-0.35-1.38,0-2l6.35-11	l2.9-5.02c0.18-0.3,0.43-0.54,0.72-0.71l3.39,5.86c-0.15,0.09-0.28,0.21-0.37,0.37l-2.45,4.24l-0.57,0.98l-3.33,5.78	c-0.18,0.31-0.18,0.69,0,1l2.74,4.75c0.2,0.33,0.68,0.33,0.87,0L20.54,18L24,24z"/><linearGradient id="gem49K_SnFEYzabzy9W8Xh" x1="32.58" x2="32.58" y1="43.047" y2="24.361" gradientUnits="userSpaceOnUse"><stop offset="0" stop-color="#0d394c"/><stop offset=".659" stop-color="#52abc9"/><stop offset="1" stop-color="#17465d"/></linearGradient><path fill="url(#gem49K_SnFEYzabzy9W8Xh)" d="M44.47,24c0,0.32-0.08,0.65-0.23,0.94c-0.01,0.02-0.02,0.04-0.03,0.06l-9.24,16	c-0.36,0.62-1.02,1-1.73,1H21.69c-0.35,0-0.7-0.1-1-0.27l3.021-5.23c0.179-0.309,0.509-0.5,0.866-0.5h5.776	c0.357,0,0.687-0.191,0.866-0.5l6.208-10.75c0.192-0.333-0.048-0.75-0.433-0.75h-2.077l6.243-5.73c0.08,0.04,0.15,0.09,0.22,0.14	c0.2,0.16,0.37,0.35,0.5,0.57l1.36,2.35L44.21,23c0.01,0.02,0.02,0.03,0.02,0.05C44.39,23.35,44.47,23.68,44.47,24z"/><linearGradient id="gem49K_SnFEYzabzy9W8Xi" x1="20.537" x2="44.475" y1="21" y2="21" gradientUnits="userSpaceOnUse"><stop offset="0" stop-color="#52abc9"/><stop offset="1" stop-color="#1c506a"/></linearGradient><path fill="url(#gem49K_SnFEYzabzy9W8Xi)" d="M41.883,18.975C41.523,18.372,40.874,18,40.17,18H20.537l3.464,6l13.869-0.024L37.856,24	h6.619c0-0.345-0.089-0.691-0.268-1L41.883,18.975z"/><linearGradient id="gem49K_SnFEYzabzy9W8Xj" x1="20.54" x2="44.48" y1="21" y2="21" gradientUnits="userSpaceOnUse"><stop offset="0" stop-color="#52abc9"/><stop offset="1" stop-color="#1c506a"/></linearGradient><path fill="url(#gem49K_SnFEYzabzy9W8Xj)" d="M44.48,24H24l-3.46-6h19.63c0.35,0,0.7,0.09,0.99,0.27c0.29,0.17,0.54,0.41,0.72,0.71	L44.21,23C44.39,23.31,44.48,23.65,44.48,24z"/></svg>